<svg xmlns="http://www.w3.org/2000/svg" width="24" height="24" viewBox="0 0 24 24" fill="none" stroke-linecap="round" stroke-linejoin="round" stroke="#1c2c44" stroke-width="1.5"   >
      
      <path d="M10 5.172C10 3.782 8.423 2.679 6.5 3c-2 .336-3.5 2.112-3.5 4 0 .828.336 1.107.5 1.5.288.692.5 1.5.5 2.5a7 7 0 0 0 7 7 7 7 0 0 0 7-7c0-1-.212-1.808-.5-2.5.164-.393.5-.672.5-1.5 0-1.888-1.5-3.664-3.5-4-1.923-.321-3.5.782-3.5 2.172" />
      <path d="M14.5 3C16.423 2.679 18 3.782 18 5.172" />
      <path d="M9 12h6" />
    </svg>