<?xml version="1.0" standalone="no"?>
<!DOCTYPE svg PUBLIC "-//W3C//DTD SVG 1.1//EN" "http://www.w3.org/Graphics/SVG/1.1/DTD/svg11.dtd">
<svg xmlns="http://www.w3.org/2000/svg" id="Layer_1" viewBox="0 0 160 160" width="160" height="160"><defs><style>.cls-1{fill:#3d8c8f;}.cls-2{fill:none;stroke:#ffffff;stroke-miterlimit:10;stroke-width:3px;}.cls-3{fill:#d6b055;}.cls-4{fill:#ffffff;}</style></defs><circle class="cls-2" cx="80" cy="55.83" r="34.36"/><polygon class="cls-4" points="80 22.66 84.22 51.61 113.17 55.83 84.22 60.05 80 88.99 75.78 60.05 46.84 55.83 75.78 51.61 80 22.66"/><polygon class="cls-1" points="93.45 42.38 83.42 55.83 93.45 69.28 80 59.25 66.55 69.28 76.58 55.83 66.55 42.38 80 52.41 93.45 42.38"/><circle class="cls-3" cx="80" cy="55.83" r="5.64"/><path class="cls-4" d="M29.64,109.05v2.8c0,1.05.02,1.74.07,2.06.05.32.18.57.4.72.22.16.62.24,1.22.24h.44v.45h-6.11v-.45h.35c.57,0,.97-.07,1.19-.22.22-.14.36-.37.42-.67.06-.31.09-1.02.09-2.13v-6.54c0-1.06-.03-1.75-.09-2.06-.06-.31-.19-.52-.39-.64-.2-.12-.64-.18-1.32-.18h-.25v-.45l1.67-.06c1.34-.05,2.38-.07,3.13-.07,1.38,0,2.44.11,3.18.32.75.22,1.36.6,1.83,1.15.48.55.71,1.25.71,2.09,0,.73-.16,1.37-.49,1.93-.33.56-.79.98-1.4,1.27-.61.29-1.67.43-3.2.43h-1.47ZM29.64,108.56h.95c.77,0,1.39-.08,1.86-.23.47-.15.87-.48,1.18-.97.32-.49.47-1.1.47-1.82,0-1.1-.27-1.91-.81-2.43-.54-.52-1.42-.77-2.63-.77-.45,0-.79.01-1.02.04v6.18Z"/><path class="cls-4" d="M50.99,115.33h-3.59c-.64-.45-1.61-1.61-2.92-3.5-.42-.6-.86-1.18-1.31-1.74-.45-.55-.76-.89-.93-1.01-.17-.12-.44-.18-.8-.18h-.53v2.96c0,1.05.02,1.74.07,2.06.05.32.18.57.39.72.21.16.62.24,1.23.24h.64v.45h-6.39v-.45h.43c.57,0,.97-.07,1.19-.22.22-.14.36-.37.42-.67.06-.31.09-1.02.09-2.13v-6.54c0-1.06-.03-1.75-.09-2.06-.06-.31-.19-.52-.39-.64s-.64-.18-1.32-.18h-.23v-.45l1.91-.1c1.27-.06,2.28-.09,3.03-.09,1.27,0,2.31.12,3.1.35.8.24,1.44.62,1.93,1.16s.74,1.18.74,1.93c0,.87-.32,1.62-.96,2.23-.64.62-1.59,1-2.83,1.15.56.27,1.46,1.24,2.7,2.91,1.01,1.36,1.8,2.25,2.38,2.67.58.42,1.26.64,2.05.67v.45ZM40.91,108.44c.49-.01,1-.03,1.53-.06.53-.03.98-.1,1.37-.22s.7-.29.94-.52c.24-.23.43-.52.57-.89.14-.37.21-.82.21-1.36,0-.94-.24-1.69-.7-2.25-.47-.56-1.49-.85-3.07-.85-.24,0-.52.01-.84.04v6.1Z"/><path class="cls-4" d="M62.54,111.18h.47l-.29,4.15h-11.05v-.45h.28c.66,0,1.09-.09,1.28-.27.19-.18.32-.4.37-.67.05-.27.08-.97.08-2.08v-6.54c0-1.02-.03-1.69-.08-2.01s-.18-.55-.38-.67-.62-.19-1.26-.19v-.45h9.54l.31,3.33h-.46c-.21-.93-.47-1.59-.77-1.98-.3-.39-.67-.64-1.09-.74-.42-.1-1.1-.15-2.03-.15h-1.85v5.6h1.42c.65,0,1.1-.06,1.36-.17.26-.11.43-.28.51-.51s.12-.67.12-1.32h.46v4.57h-.46c0-.74-.06-1.24-.19-1.49-.12-.25-.31-.42-.55-.49-.24-.08-.64-.11-1.21-.11h-1.47v3.16c0,1.58.1,2.51.31,2.79.2.28.75.42,1.64.42h.99c.7,0,1.28-.09,1.73-.27.45-.18.88-.55,1.29-1.11s.73-1.33.97-2.32Z"/><path class="cls-4" d="M76.37,110.32h.42v4.67h-.42c-.12-.53-.33-1-.64-1.41-1.17,1.33-2.67,1.99-4.5,1.99-1.93,0-3.5-.61-4.73-1.83s-1.84-2.83-1.84-4.84c0-1.32.28-2.56.85-3.73.56-1.16,1.35-2.03,2.36-2.59,1.01-.56,2.12-.85,3.33-.85,1,0,1.9.21,2.71.62s1.42.86,1.82,1.36c.28-.56.45-1.13.51-1.73h.43l.12,5.06h-.42c-.3-1.8-.9-3.05-1.81-3.75-.91-.7-1.93-1.05-3.08-1.05-1.4,0-2.51.57-3.33,1.7s-1.24,2.76-1.24,4.87c0,2,.45,3.53,1.35,4.6.9,1.07,2.02,1.6,3.36,1.6.71,0,1.45-.17,2.2-.52.75-.35,1.34-.94,1.78-1.77.44-.83.69-1.63.77-2.41Z"/><path class="cls-4" d="M78.64,102.44v-.45h6.1v.45h-.29c-.66,0-1.09.05-1.29.16-.2.11-.34.31-.41.6-.07.3-.1,1-.1,2.11v6.54c0,1.05.02,1.74.07,2.06.05.32.18.57.39.72.21.16.62.24,1.22.24h.39v.45h-6.1v-.45h.39c.57,0,.97-.07,1.19-.22.22-.14.36-.37.42-.67.06-.31.09-1.02.09-2.13v-6.54c0-1.06-.03-1.75-.09-2.06-.06-.31-.19-.52-.39-.64-.2-.12-.64-.18-1.32-.18h-.29Z"/><path class="cls-4" d="M86.41,115.19v-4.29h.49c.56,2.79,1.88,4.19,3.97,4.19.94,0,1.67-.27,2.18-.8.51-.53.77-1.13.77-1.8s-.23-1.23-.68-1.68c-.45-.45-1.28-.93-2.48-1.44-1.07-.46-1.88-.86-2.42-1.21-.54-.34-.97-.79-1.27-1.34-.31-.55-.46-1.14-.46-1.76,0-.95.33-1.74.99-2.38s1.49-.95,2.5-.95c.56,0,1.1.09,1.59.28.5.18,1.01.56,1.54,1.14.3-.36.47-.75.51-1.17h.43v3.49h-.43c-.25-1.02-.69-1.82-1.32-2.4-.63-.58-1.37-.88-2.2-.88s-1.38.22-1.75.65c-.37.43-.56.9-.56,1.41,0,.62.23,1.14.7,1.56.46.43,1.29.92,2.49,1.46,1.15.51,1.98.92,2.5,1.23.52.31.94.74,1.25,1.29.32.55.47,1.19.47,1.91,0,1.14-.38,2.07-1.14,2.79s-1.78,1.07-3.05,1.07c-1.46,0-2.68-.56-3.66-1.68-.22.31-.38.74-.48,1.3h-.49Z"/><path class="cls-4" d="M96.69,102.44v-.45h6.1v.45h-.29c-.66,0-1.09.05-1.29.16-.2.11-.34.31-.41.6-.07.3-.1,1-.1,2.11v6.54c0,1.05.02,1.74.07,2.06.05.32.18.57.39.72.21.16.62.24,1.22.24h.39v.45h-6.1v-.45h.39c.57,0,.97-.07,1.19-.22.22-.14.36-.37.42-.67.06-.31.09-1.02.09-2.13v-6.54c0-1.06-.03-1.75-.09-2.06-.06-.31-.19-.52-.39-.64-.2-.12-.64-.18-1.32-.18h-.29Z"/><path class="cls-4" d="M104.33,108.57c0-2.06.69-3.71,2.07-4.96,1.38-1.25,3.1-1.87,5.16-1.87s3.82.62,5.21,1.85c1.39,1.23,2.09,2.92,2.09,5.05s-.67,3.74-2,5.02c-1.33,1.28-3.09,1.92-5.27,1.92s-3.86-.64-5.22-1.92c-1.36-1.28-2.04-2.98-2.04-5.09ZM106.59,108.64c0,2.15.43,3.76,1.28,4.83.86,1.08,2.14,1.61,3.85,1.61,1.5,0,2.69-.54,3.56-1.61.87-1.08,1.31-2.68,1.31-4.81s-.43-3.66-1.29-4.77-2.11-1.66-3.74-1.66-2.84.54-3.7,1.62c-.86,1.08-1.28,2.68-1.28,4.79Z"/><path class="cls-4" d="M132.29,115.64l-9.44-12.51v9.26c0,.77.04,1.27.11,1.52.08.24.29.47.65.67.35.2.89.31,1.59.31v.45h-4.98v-.45c.64-.05,1.12-.16,1.46-.35.33-.19.53-.39.6-.6.06-.22.09-.73.09-1.54v-7.08c0-1.02-.05-1.71-.14-2.06-.1-.35-.25-.57-.45-.67-.21-.1-.67-.15-1.38-.15v-.45h3.94l7.9,10.44v-7.98c0-.59-.06-1-.18-1.24s-.37-.42-.74-.56c-.37-.14-.82-.21-1.35-.21v-.45h4.84v.45c-.56.05-1.01.15-1.33.32-.32.17-.53.38-.62.62-.09.24-.13.64-.13,1.22v11.04h-.42Z"/><path class="cls-1" d="M36.1,120.99h.73l2.32,3.47,2.32-3.47h.73v6.36h-.72v-5.15l-2.32,3.4h-.04l-2.32-3.4v5.14h-.7v-6.36Z"/><path class="cls-1" d="M48.6,120.94h.67l2.9,6.4h-.77l-.75-1.68h-3.46l-.75,1.68h-.74l2.9-6.4ZM50.37,125.02l-1.44-3.24-1.45,3.24h2.9Z"/><path class="cls-1" d="M55.69,120.99h.67l4,5.09v-5.09h.7v6.36h-.57l-4.1-5.21v5.21h-.7v-6.36Z"/><path class="cls-1" d="M67.48,120.94h.67l2.9,6.4h-.77l-.75-1.68h-3.46l-.75,1.68h-.74l2.9-6.4ZM69.25,125.02l-1.44-3.24-1.45,3.24h2.9Z"/><path class="cls-1" d="M73.92,124.18v-.02c0-1.74,1.28-3.29,3.19-3.29,1.07,0,1.73.31,2.37.84l-.46.54c-.49-.43-1.04-.73-1.93-.73-1.41,0-2.41,1.19-2.41,2.61v.02c0,1.52.97,2.64,2.51,2.64.73,0,1.4-.28,1.83-.64v-1.58h-1.93v-.64h2.62v2.53c-.59.53-1.48.97-2.55.97-2,0-3.23-1.45-3.23-3.27Z"/><path class="cls-1" d="M83.59,120.99h4.59v.65h-3.88v2.17h3.47v.65h-3.47v2.22h3.92v.65h-4.64v-6.36Z"/><path class="cls-1" d="M91.94,120.99h.73l2.32,3.47,2.32-3.47h.73v6.36h-.72v-5.15l-2.32,3.4h-.04l-2.32-3.4v5.14h-.7v-6.36Z"/><path class="cls-1" d="M102.09,120.99h4.59v.65h-3.88v2.17h3.47v.65h-3.47v2.22h3.92v.65h-4.64v-6.36Z"/><path class="cls-1" d="M110.44,120.99h.67l4,5.09v-5.09h.7v6.36h-.57l-4.1-5.21v5.21h-.7v-6.36Z"/><path class="cls-1" d="M121.53,121.65h-2.14v-.66h5v.66h-2.14v5.69h-.72v-5.69Z"/><path class="cls-3" d="M29.11,136.37h.17l-.43,1.33h-4.2l.05-.18h.12c.16,0,.3-.03.41-.09s.19-.13.23-.2.1-.25.18-.51l1.02-3.37c.08-.26.12-.42.12-.49,0-.19-.17-.28-.51-.28h-.11l.05-.18h2.16l-.05.18h-.14c-.18,0-.32.02-.41.07s-.17.11-.22.19-.12.29-.22.62l-.98,3.24c-.08.25-.11.4-.11.46,0,.12.05.22.15.28s.31.1.65.1h.27c.54,0,.95-.13,1.23-.4s.47-.52.58-.77Z"/><path class="cls-3" d="M31.09,136.7h.19c-.33.74-.75,1.11-1.27,1.11-.21,0-.39-.07-.52-.22s-.2-.35-.2-.61c0-.32.09-.69.26-1.09s.42-.76.74-1.05.6-.44.83-.44c.15,0,.26.05.33.14s.11.21.11.35c0,.28-.14.55-.42.81s-.7.51-1.27.75c-.07.23-.11.44-.11.64,0,.17.03.29.1.38s.16.12.29.12c.36,0,.67-.29.94-.88ZM29.93,136.24c.34-.15.64-.36.91-.62s.4-.51.4-.72c0-.1-.02-.17-.06-.22s-.1-.07-.18-.07c-.16,0-.34.15-.55.46s-.38.7-.51,1.19Z"/><path class="cls-3" d="M34.25,134.45h.47l-.7,2.29c-.1.33-.15.53-.15.6,0,.05.01.09.04.12s.06.04.11.04c.18,0,.39-.21.62-.62h.16c-.1.23-.25.45-.44.64s-.36.29-.52.29c-.12,0-.22-.05-.28-.14s-.1-.2-.1-.34c0-.11.03-.25.08-.42-.12.2-.29.4-.51.6s-.43.29-.63.29c-.18,0-.34-.08-.47-.23s-.2-.36-.2-.63c0-.35.1-.73.3-1.14s.47-.74.79-1.01.61-.41.84-.41c.14,0,.24.03.32.1s.13.16.16.29l.1-.33ZM32.21,137.07c0,.17.03.3.08.39s.13.13.23.13c.17,0,.38-.13.62-.38s.45-.64.63-1.16.27-.88.27-1.06c0-.11-.03-.2-.08-.28s-.14-.12-.24-.12c-.32,0-.65.31-.99.94s-.51,1.14-.51,1.54Z"/><path class="cls-3" d="M37.86,136.99h.19c-.12.21-.26.4-.44.57s-.34.25-.49.25c-.14,0-.24-.04-.31-.12s-.11-.21-.11-.37c0-.08,0-.14.02-.21-.37.47-.71.7-1.03.7-.18,0-.33-.07-.45-.21s-.19-.35-.19-.62c0-.38.1-.78.31-1.22s.47-.77.77-1.01.57-.36.8-.36c.12,0,.22.03.3.08s.15.14.2.25l.48-1.57c.06-.19.09-.3.09-.34,0-.06-.02-.11-.05-.13s-.12-.04-.26-.04h-.11l.05-.16c.38,0,.68-.05.9-.14h.1l-1.25,4.11c-.15.51-.23.81-.23.9,0,.06.01.11.04.15s.06.05.11.05c.08,0,.17-.05.26-.14s.2-.23.31-.41ZM35.5,137.15c0,.15.03.26.08.33s.13.11.22.11c.17,0,.38-.12.61-.37s.44-.64.63-1.2.29-.91.29-1.06c0-.1-.03-.18-.1-.26s-.15-.12-.26-.12c-.17,0-.35.1-.53.3s-.39.54-.61,1.04-.33.9-.33,1.23Z"/><path class="cls-3" d="M40.64,134.99h-.17c.1-.39.24-.58.41-.58.1,0,.21.06.32.2.11.12.2.19.28.19s.12-.06.16-.18c.04-.15.1-.23.18-.23s.12.04.12.11c0,.03-.07.17-.21.42-.33.56-.55,1.03-.65,1.4s-.15.62-.15.76.03.25.1.34.15.14.27.14c.17,0,.37-.08.6-.25s.41-.33.54-.49c0-.06-.01-.13-.01-.21,0-.54.11-1.04.32-1.51s.44-.71.68-.71c.1,0,.17.04.22.11s.07.18.07.32c0,.24-.07.5-.2.79s-.34.6-.61.93c.02.33.09.59.2.77s.24.27.4.27.33-.09.54-.27.38-.45.54-.82.24-.68.24-.93c0-.15-.04-.32-.12-.5-.08-.16-.11-.3-.11-.41,0-.08.02-.14.06-.19s.09-.07.14-.07c.07,0,.14.05.2.15s.09.27.09.51c0,.34-.08.76-.25,1.26s-.4.87-.69,1.12-.58.38-.85.38c-.23,0-.42-.08-.56-.25s-.23-.34-.27-.52c-.25.26-.49.45-.72.58s-.45.2-.67.2-.38-.07-.49-.2-.17-.3-.17-.5c0-.44.28-1.05.84-1.84.14-.19.22-.31.24-.35-.11.06-.22.09-.32.09-.09,0-.19-.05-.29-.14-.04-.04-.08-.07-.12-.07-.06,0-.11.05-.15.15v.04ZM42.89,136.29c.22-.3.39-.57.5-.82s.17-.47.17-.67c0-.08-.01-.14-.03-.18s-.06-.06-.1-.06c-.1,0-.22.13-.35.39s-.19.64-.19,1.14c0,.06,0,.12,0,.2Z"/><path class="cls-3" d="M46.87,136.84h.19c-.12.25-.28.48-.48.67s-.39.29-.57.29c-.12,0-.23-.04-.32-.13s-.14-.22-.14-.38c0-.14.07-.4.22-.79l.45-1.19c.1-.28.16-.45.16-.51,0-.05-.01-.09-.04-.12s-.06-.04-.11-.04c-.1,0-.22.08-.36.24s-.24.3-.29.43h-.19c.14-.28.31-.51.49-.67s.35-.25.51-.25c.12,0,.22.04.3.12s.12.19.12.33-.07.39-.21.76l-.38,1.02c-.14.37-.21.6-.21.69,0,.08.01.13.04.17s.07.06.13.06c.19,0,.42-.23.68-.69ZM46.58,132.67c0-.09.03-.17.1-.24s.15-.1.24-.1.17.03.24.1.1.15.1.24-.03.17-.1.24-.15.1-.24.1-.18-.03-.24-.1-.1-.15-.1-.24Z"/><path class="cls-3" d="M49.3,134.5l-.05.17h-.59l-.52,1.71c-.17.56-.26.89-.26.98,0,.06.01.11.04.14s.07.05.12.05c.09,0,.22-.09.37-.27s.29-.4.41-.67h.17c-.16.39-.34.68-.54.89s-.39.31-.56.31c-.13,0-.24-.05-.32-.14s-.12-.21-.12-.36c0-.12.08-.45.24-.98l.5-1.66h-.54l.05-.17h.54l.36-1.18h.47l-.36,1.18h.59Z"/><path class="cls-3" d="M49.51,137.76h-.46l1.37-4.51c.08-.26.12-.4.12-.45,0-.06-.02-.1-.05-.13s-.12-.04-.26-.04h-.12l.05-.16c.41-.01.72-.06.92-.14h.1l-.89,2.91c.47-.57.9-.85,1.28-.85.17,0,.3.04.39.11s.13.18.13.33c0,.12-.08.4-.23.84l-.34.98c-.13.38-.2.6-.2.66,0,.06.01.11.04.15s.07.05.12.05c.09,0,.2-.06.32-.17s.22-.25.3-.42h.19c-.13.27-.29.48-.47.64s-.36.24-.52.24c-.12,0-.22-.04-.31-.13s-.13-.21-.13-.35c0-.16.07-.43.22-.83l.33-.9c.15-.41.23-.67.23-.78,0-.06-.02-.11-.05-.15s-.09-.05-.16-.05c-.12,0-.25.05-.41.14s-.32.25-.5.48-.3.43-.38.63-.18.51-.31.93l-.3.96Z"/><path class="cls-3" d="M56.4,135.13l-.46,1.55c-.08.25-.11.41-.11.46,0,.12.05.22.15.28s.23.09.39.09h.12l-.05.18h-2.11l.05-.18c.16,0,.3-.03.41-.09s.19-.12.23-.2.1-.25.18-.51l1.02-3.37c.08-.26.12-.42.12-.49,0-.19-.17-.28-.51-.28h-.18l.05-.18h1.47c.4,0,.69.01.88.03s.39.09.59.2.35.26.46.44.16.38.16.58c0,.38-.16.71-.49,1.02s-1,.46-2.02.46h-.38ZM56.45,134.95h.23c.39,0,.71-.04.96-.11s.46-.23.64-.49.27-.54.27-.85c0-.24-.05-.43-.16-.59s-.24-.25-.38-.29-.37-.05-.66-.05h-.19l-.72,2.37Z"/><path class="cls-3" d="M61.11,134.45h.47l-.7,2.29c-.1.33-.15.53-.15.6,0,.05.01.09.04.12s.06.04.11.04c.18,0,.39-.21.62-.62h.16c-.1.23-.25.45-.44.64s-.36.29-.52.29c-.12,0-.22-.05-.28-.14s-.1-.2-.1-.34c0-.11.03-.25.08-.42-.12.2-.29.4-.51.6s-.43.29-.63.29c-.18,0-.34-.08-.47-.23s-.2-.36-.2-.63c0-.35.1-.73.3-1.14s.47-.74.79-1.01.61-.41.84-.41c.14,0,.24.03.32.1s.13.16.16.29l.1-.33ZM59.07,137.07c0,.17.03.3.08.39s.13.13.23.13c.17,0,.38-.13.62-.38s.45-.64.63-1.16.27-.88.27-1.06c0-.11-.03-.2-.08-.28s-.14-.12-.24-.12c-.32,0-.65.31-.99.94s-.51,1.14-.51,1.54Z"/><path class="cls-3" d="M63.67,136.84c0,.24-.09.46-.28.67s-.46.3-.82.3c-.27,0-.47-.06-.6-.18s-.2-.25-.2-.38c0-.07.02-.14.06-.19s.09-.08.15-.08c.14,0,.21.07.21.22,0,.03,0,.08-.02.14-.01.03-.02.05-.02.07,0,.06.04.12.12.16s.18.07.29.07c.17,0,.33-.06.48-.17s.21-.26.21-.46c0-.17-.1-.44-.3-.8-.23-.42-.35-.73-.35-.93,0-.25.1-.46.3-.63s.42-.26.68-.26c.18,0,.34.05.47.14s.2.19.2.3c0,.14-.06.21-.17.21-.09,0-.15-.08-.19-.23-.04-.17-.16-.25-.34-.25-.15,0-.28.04-.39.12s-.16.19-.16.32c0,.18.09.42.26.73.16.28.27.5.33.64s.08.3.08.46Z"/><path class="cls-3" d="M66.17,136.84c0,.24-.09.46-.28.67s-.46.3-.82.3c-.27,0-.47-.06-.6-.18s-.2-.25-.2-.38c0-.07.02-.14.06-.19s.09-.08.15-.08c.14,0,.21.07.21.22,0,.03,0,.08-.02.14-.01.03-.02.05-.02.07,0,.06.04.12.12.16s.18.07.29.07c.17,0,.33-.06.48-.17s.21-.26.21-.46c0-.17-.1-.44-.3-.8-.23-.42-.35-.73-.35-.93,0-.25.1-.46.3-.63s.42-.26.68-.26c.18,0,.34.05.47.14s.2.19.2.3c0,.14-.06.21-.17.21-.09,0-.15-.08-.19-.23-.04-.17-.16-.25-.34-.25-.15,0-.28.04-.39.12s-.16.19-.16.32c0,.18.09.42.26.73.16.28.27.5.33.64s.08.3.08.46Z"/><path class="cls-3" d="M68.39,136.84h.19c-.12.25-.28.48-.48.67s-.39.29-.57.29c-.12,0-.23-.04-.32-.13s-.14-.22-.14-.38c0-.14.07-.4.22-.79l.45-1.19c.1-.28.16-.45.16-.51,0-.05-.01-.09-.04-.12s-.06-.04-.11-.04c-.1,0-.22.08-.36.24s-.24.3-.29.43h-.19c.14-.28.31-.51.49-.67s.35-.25.51-.25c.12,0,.22.04.3.12s.12.19.12.33-.07.39-.21.76l-.38,1.02c-.14.37-.21.6-.21.69,0,.08.01.13.04.17s.07.06.13.06c.19,0,.42-.23.68-.69ZM68.11,132.67c0-.09.03-.17.1-.24s.15-.1.24-.1.17.03.24.1.1.15.1.24-.03.17-.1.24-.15.1-.24.1-.18-.03-.24-.1-.1-.15-.1-.24Z"/><path class="cls-3" d="M68.89,136.67c0-.31.07-.65.22-1.02s.35-.67.62-.9.53-.34.79-.34c.23,0,.42.1.57.29s.22.46.22.8c0,.41-.08.79-.25,1.16s-.38.64-.63.84-.5.29-.74.29c-.22,0-.41-.08-.57-.25s-.24-.46-.24-.87ZM69.31,137.12c0,.14.04.26.11.36s.17.15.3.15c.35,0,.64-.33.86-.99s.34-1.17.34-1.52c0-.18-.03-.31-.1-.4s-.17-.13-.31-.13c-.33,0-.61.31-.84.92s-.35,1.15-.35,1.62Z"/><path class="cls-3" d="M74.64,136.97h.2c-.16.28-.32.49-.48.63s-.33.21-.5.21c-.12,0-.22-.04-.3-.11s-.13-.18-.13-.32c0-.12.06-.35.18-.7l.42-1.19c.11-.33.17-.54.17-.63,0-.09-.02-.15-.06-.19s-.1-.06-.17-.06c-.2,0-.46.23-.78.7s-.59,1.07-.82,1.83l-.19.62h-.48l.69-2.22c.12-.41.19-.64.19-.7,0-.04,0-.08-.02-.1s-.04-.03-.07-.03c-.15,0-.34.19-.55.57h-.18c.33-.59.63-.89.93-.89.1,0,.18.03.23.09s.08.15.08.28c0,.22-.09.57-.26,1.04.47-.94.93-1.41,1.38-1.41.14,0,.27.05.38.14s.16.23.16.42c0,.12-.05.34-.16.66l-.42,1.25c-.11.34-.17.52-.17.56,0,.05.01.09.04.11s.06.04.11.04c.09,0,.18-.05.29-.15s.21-.25.32-.45Z"/><path class="cls-3" d="M75.14,137.4c0-.11.04-.21.12-.29s.18-.12.29-.12.21.04.29.12.12.18.12.29-.04.21-.12.29-.18.12-.29.12-.22-.04-.29-.12-.12-.18-.12-.29Z"/><path class="cls-3" d="M79.32,135.93h.16c.03.59.17,1.02.42,1.28s.54.39.87.39c.28,0,.52-.09.72-.28s.31-.42.31-.7c0-.2-.05-.39-.14-.55s-.25-.35-.49-.57c-.38-.36-.63-.64-.77-.86s-.2-.47-.2-.77c0-.41.15-.77.44-1.08s.63-.47,1-.47c.44,0,.77.22.99.67.11-.17.19-.36.24-.58h.16l-.21,1.55h-.18c0-.37-.05-.66-.15-.86s-.22-.36-.38-.46-.32-.16-.51-.16c-.27,0-.49.1-.66.31s-.25.45-.25.72c0,.22.06.41.17.57s.33.39.64.68c.37.34.6.62.7.84s.14.44.14.66c0,.44-.16.81-.48,1.09s-.68.43-1.08.43c-.48,0-.89-.23-1.23-.7-.12.16-.21.34-.26.54h-.2l.19-1.71Z"/><path class="cls-3" d="M84.62,136.7h.19c-.33.74-.75,1.11-1.27,1.11-.21,0-.39-.07-.52-.22s-.2-.35-.2-.61c0-.32.09-.69.26-1.09s.42-.76.74-1.05.6-.44.83-.44c.15,0,.26.05.33.14s.11.21.11.35c0,.28-.14.55-.42.81s-.7.51-1.27.75c-.07.23-.11.44-.11.64,0,.17.03.29.1.38s.16.12.29.12c.36,0,.67-.29.94-.88ZM83.46,136.24c.34-.15.64-.36.91-.62s.4-.51.4-.72c0-.1-.02-.17-.06-.22s-.1-.07-.18-.07c-.16,0-.34.15-.55.46s-.38.7-.51,1.19Z"/><path class="cls-3" d="M85.41,135.45h-.17c.11-.29.25-.54.41-.75s.33-.31.49-.31c.11,0,.2.04.25.13s.08.23.08.41c0,.23-.06.55-.18.97.02-.03.06-.12.13-.28.19-.44.36-.75.51-.94s.29-.29.44-.29c.09,0,.16.03.22.09s.08.13.08.21-.02.14-.07.19-.1.07-.16.07c-.07,0-.14-.04-.21-.13-.03-.03-.06-.05-.09-.05-.13,0-.33.31-.6.94s-.49,1.22-.66,1.77l-.09.28h-.47l.62-2.07c.12-.4.18-.66.18-.8,0-.08,0-.13-.03-.17s-.05-.05-.09-.05c-.09,0-.19.09-.32.28s-.22.35-.28.51Z"/><path class="cls-3" d="M88.04,135h-.16c.12-.4.29-.61.5-.61.11,0,.23.1.34.29.04.07.09.11.15.11.06,0,.11-.05.14-.16.05-.16.11-.23.19-.23.06,0,.09.03.09.09s-.04.16-.12.31c-.31.58-.53,1.03-.65,1.35s-.18.6-.18.86c0,.18.04.32.12.42s.17.15.27.15c.3,0,.6-.24.89-.71s.43-.94.43-1.38c0-.18-.04-.35-.11-.53-.05-.11-.07-.2-.07-.29,0-.18.07-.27.2-.27.08,0,.14.05.19.14s.07.21.07.37c0,.35-.08.77-.23,1.28s-.37.9-.65,1.2-.58.44-.89.44c-.21,0-.37-.06-.49-.19s-.19-.3-.19-.53.06-.49.19-.78.34-.65.64-1.09c.05-.07.09-.14.13-.21.03-.06.06-.1.07-.11-.1.06-.2.1-.28.1s-.16-.03-.22-.09c-.07-.06-.13-.1-.18-.1-.09,0-.15.06-.2.2Z"/><path class="cls-3" d="M92.57,136.7h.19c-.33.74-.75,1.11-1.27,1.11-.21,0-.39-.07-.52-.22s-.2-.35-.2-.61c0-.32.09-.69.26-1.09s.42-.76.74-1.05.6-.44.83-.44c.15,0,.26.05.33.14s.11.21.11.35c0,.28-.14.55-.42.81s-.7.51-1.27.75c-.07.23-.11.44-.11.64,0,.17.03.29.1.38s.16.12.29.12c.36,0,.67-.29.94-.88ZM91.41,136.24c.34-.15.64-.36.91-.62s.4-.51.4-.72c0-.1-.02-.17-.06-.22s-.1-.07-.18-.07c-.16,0-.34.15-.55.46s-.38.7-.51,1.19Z"/><path class="cls-3" d="M95.46,134.99h-.17c.1-.39.24-.58.41-.58.1,0,.21.06.32.2.11.12.2.19.28.19s.12-.06.16-.18c.04-.15.1-.23.18-.23s.12.04.12.11c0,.03-.07.17-.21.42-.33.56-.55,1.03-.65,1.4s-.15.62-.15.76.03.25.1.34.15.14.27.14c.17,0,.37-.08.6-.25s.41-.33.54-.49c0-.06-.01-.13-.01-.21,0-.54.11-1.04.32-1.51s.44-.71.68-.71c.1,0,.17.04.22.11s.07.18.07.32c0,.24-.07.5-.2.79s-.34.6-.61.93c.02.33.09.59.2.77s.24.27.4.27.33-.09.54-.27.38-.45.54-.82.24-.68.24-.93c0-.15-.04-.32-.12-.5-.08-.16-.11-.3-.11-.41,0-.08.02-.14.06-.19s.09-.07.14-.07c.07,0,.14.05.2.15s.09.27.09.51c0,.34-.08.76-.25,1.26s-.4.87-.69,1.12-.58.38-.85.38c-.23,0-.42-.08-.56-.25s-.23-.34-.27-.52c-.25.26-.49.45-.72.58s-.45.2-.67.2-.38-.07-.49-.2-.17-.3-.17-.5c0-.44.28-1.05.84-1.84.14-.19.22-.31.24-.35-.11.06-.22.09-.32.09-.09,0-.19-.05-.29-.14-.04-.04-.08-.07-.12-.07-.06,0-.11.05-.15.15v.04ZM97.71,136.29c.22-.3.39-.57.5-.82s.17-.47.17-.67c0-.08-.01-.14-.03-.18s-.06-.06-.1-.06c-.1,0-.22.13-.35.39s-.19.64-.19,1.14c0,.06,0,.12,0,.2Z"/><path class="cls-3" d="M101.68,136.84h.19c-.12.25-.28.48-.48.67s-.39.29-.57.29c-.12,0-.23-.04-.32-.13s-.14-.22-.14-.38c0-.14.07-.4.22-.79l.45-1.19c.1-.28.16-.45.16-.51,0-.05-.01-.09-.04-.12s-.06-.04-.11-.04c-.1,0-.22.08-.36.24s-.24.3-.29.43h-.19c.14-.28.31-.51.49-.67s.35-.25.51-.25c.12,0,.22.04.3.12s.12.19.12.33-.07.39-.21.76l-.38,1.02c-.14.37-.21.6-.21.69,0,.08.01.13.04.17s.07.06.13.06c.19,0,.42-.23.68-.69ZM101.39,132.67c0-.09.03-.17.1-.24s.15-.1.24-.1.17.03.24.1.1.15.1.24-.03.17-.1.24-.15.1-.24.1-.18-.03-.24-.1-.1-.15-.1-.24Z"/><path class="cls-3" d="M104.11,134.5l-.05.17h-.59l-.52,1.71c-.17.56-.26.89-.26.98,0,.06.01.11.04.14s.07.05.12.05c.09,0,.22-.09.37-.27s.29-.4.41-.67h.17c-.16.39-.34.68-.54.89s-.39.31-.56.31c-.13,0-.24-.05-.32-.14s-.12-.21-.12-.36c0-.12.08-.45.24-.98l.5-1.66h-.54l.05-.17h.54l.36-1.18h.47l-.36,1.18h.59Z"/><path class="cls-3" d="M104.32,137.76h-.46l1.37-4.51c.08-.26.12-.4.12-.45,0-.06-.02-.1-.05-.13s-.12-.04-.26-.04h-.12l.05-.16c.41-.01.72-.06.92-.14h.1l-.89,2.91c.47-.57.9-.85,1.28-.85.17,0,.3.04.39.11s.13.18.13.33c0,.12-.08.4-.23.84l-.34.98c-.13.38-.2.6-.2.66,0,.06.01.11.04.15s.07.05.12.05c.09,0,.2-.06.32-.17s.22-.25.3-.42h.19c-.13.27-.29.48-.47.64s-.36.24-.52.24c-.12,0-.22-.04-.31-.13s-.13-.21-.13-.35c0-.16.07-.43.22-.83l.33-.9c.15-.41.23-.67.23-.78,0-.06-.02-.11-.05-.15s-.09-.05-.16-.05c-.12,0-.25.05-.41.14s-.32.25-.5.48-.3.43-.38.63-.18.51-.31.93l-.3.96Z"/><path class="cls-3" d="M111.21,135.13l-.46,1.55c-.08.25-.11.41-.11.46,0,.12.05.22.15.28s.23.09.39.09h.12l-.05.18h-2.11l.05-.18c.16,0,.3-.03.41-.09s.19-.12.23-.2.1-.25.18-.51l1.02-3.37c.08-.26.12-.42.12-.49,0-.19-.17-.28-.51-.28h-.18l.05-.18h1.47c.4,0,.69.01.88.03s.39.09.59.2.35.26.46.44.16.38.16.58c0,.38-.16.71-.49,1.02s-1,.46-2.02.46h-.38ZM111.27,134.95h.23c.39,0,.71-.04.96-.11s.46-.23.64-.49.27-.54.27-.85c0-.24-.05-.43-.16-.59s-.24-.25-.38-.29-.37-.05-.66-.05h-.19l-.72,2.37Z"/><path class="cls-3" d="M113.86,135.45h-.17c.11-.29.25-.54.41-.75s.33-.31.49-.31c.11,0,.2.04.25.13s.08.23.08.41c0,.23-.06.55-.18.97.02-.03.06-.12.13-.28.19-.44.36-.75.51-.94s.29-.29.44-.29c.09,0,.16.03.22.09s.08.13.08.21-.02.14-.07.19-.1.07-.16.07c-.07,0-.14-.04-.21-.13-.03-.03-.06-.05-.09-.05-.13,0-.33.31-.6.94s-.49,1.22-.66,1.77l-.09.28h-.47l.62-2.07c.12-.4.18-.66.18-.8,0-.08,0-.13-.03-.17s-.05-.05-.09-.05c-.09,0-.19.09-.32.28s-.22.35-.28.51Z"/><path class="cls-3" d="M117.74,136.7h.19c-.33.74-.75,1.11-1.27,1.11-.21,0-.39-.07-.52-.22s-.2-.35-.2-.61c0-.32.09-.69.26-1.09s.42-.76.74-1.05.6-.44.83-.44c.15,0,.26.05.33.14s.11.21.11.35c0,.28-.14.55-.42.81s-.7.51-1.27.75c-.07.23-.11.44-.11.64,0,.17.03.29.1.38s.16.12.29.12c.36,0,.67-.29.94-.88ZM116.58,136.24c.34-.15.64-.36.91-.62s.4-.51.4-.72c0-.1-.02-.17-.06-.22s-.1-.07-.18-.07c-.16,0-.34.15-.55.46s-.38.7-.51,1.19Z"/><path class="cls-3" d="M120.2,136.59h.16c-.13.37-.31.67-.54.89s-.47.33-.71.33c-.21,0-.38-.08-.51-.24s-.19-.38-.19-.67c0-.34.09-.7.26-1.1s.42-.73.73-1.01.59-.41.83-.41c.14,0,.25.04.35.13s.14.2.14.32c0,.19-.07.28-.22.28s-.23-.1-.24-.31c0-.15-.06-.23-.18-.23-.15,0-.32.13-.51.4s-.36.63-.5,1.08-.21.79-.21,1.03c0,.15.04.27.11.36s.17.13.27.13c.15,0,.32-.09.5-.27s.33-.42.44-.72Z"/><path class="cls-3" d="M122.44,136.84h.19c-.12.25-.28.48-.48.67s-.39.29-.57.29c-.12,0-.23-.04-.32-.13s-.14-.22-.14-.38c0-.14.07-.4.22-.79l.45-1.19c.1-.28.16-.45.16-.51,0-.05-.01-.09-.04-.12s-.06-.04-.11-.04c-.1,0-.22.08-.36.24s-.24.3-.29.43h-.19c.14-.28.31-.51.49-.67s.35-.25.51-.25c.12,0,.22.04.3.12s.12.19.12.33-.07.39-.21.76l-.38,1.02c-.14.37-.21.6-.21.69,0,.08.01.13.04.17s.07.06.13.06c.19,0,.42-.23.68-.69ZM122.15,132.67c0-.09.03-.17.1-.24s.15-.1.24-.1.17.03.24.1.1.15.1.24-.03.17-.1.24-.15.1-.24.1-.18-.03-.24-.1-.1-.15-.1-.24Z"/><path class="cls-3" d="M124.63,136.84c0,.24-.09.46-.28.67s-.46.3-.82.3c-.27,0-.47-.06-.6-.18s-.2-.25-.2-.38c0-.07.02-.14.06-.19s.09-.08.15-.08c.14,0,.21.07.21.22,0,.03,0,.08-.02.14-.01.03-.02.05-.02.07,0,.06.04.12.12.16s.18.07.29.07c.17,0,.33-.06.48-.17s.21-.26.21-.46c0-.17-.1-.44-.3-.8-.23-.42-.35-.73-.35-.93,0-.25.1-.46.3-.63s.42-.26.68-.26c.18,0,.34.05.47.14s.2.19.2.3c0,.14-.06.21-.17.21-.09,0-.15-.08-.19-.23-.04-.17-.16-.25-.34-.25-.15,0-.28.04-.39.12s-.16.19-.16.32c0,.18.09.42.26.73.16.28.27.5.33.64s.08.3.08.46Z"/><path class="cls-3" d="M126.86,136.84h.19c-.12.25-.28.48-.48.67s-.39.29-.57.29c-.12,0-.23-.04-.32-.13s-.14-.22-.14-.38c0-.14.07-.4.22-.79l.45-1.19c.1-.28.16-.45.16-.51,0-.05-.01-.09-.04-.12s-.06-.04-.11-.04c-.1,0-.22.08-.36.24s-.24.3-.29.43h-.19c.14-.28.31-.51.49-.67s.35-.25.51-.25c.12,0,.22.04.3.12s.12.19.12.33-.07.39-.21.76l-.38,1.02c-.14.37-.21.6-.21.69,0,.08.01.13.04.17s.07.06.13.06c.19,0,.42-.23.68-.69ZM126.57,132.67c0-.09.03-.17.1-.24s.15-.1.24-.1.17.03.24.1.1.15.1.24-.03.17-.1.24-.15.1-.24.1-.18-.03-.24-.1-.1-.15-.1-.24Z"/><path class="cls-3" d="M127.35,136.67c0-.31.07-.65.22-1.02s.35-.67.62-.9.53-.34.79-.34c.23,0,.42.1.57.29s.22.46.22.8c0,.41-.08.79-.25,1.16s-.38.64-.63.84-.5.29-.74.29c-.22,0-.41-.08-.57-.25s-.24-.46-.24-.87ZM127.77,137.12c0,.14.04.26.11.36s.17.15.3.15c.35,0,.64-.33.86-.99s.34-1.17.34-1.52c0-.18-.03-.31-.1-.4s-.17-.13-.31-.13c-.33,0-.61.31-.84.92s-.35,1.15-.35,1.62Z"/><path class="cls-3" d="M133.1,136.97h.2c-.16.28-.32.49-.48.63s-.33.21-.5.21c-.12,0-.22-.04-.3-.11s-.13-.18-.13-.32c0-.12.06-.35.18-.7l.42-1.19c.11-.33.17-.54.17-.63,0-.09-.02-.15-.06-.19s-.1-.06-.17-.06c-.2,0-.46.23-.78.7s-.59,1.07-.82,1.83l-.19.62h-.48l.69-2.22c.12-.41.19-.64.19-.7,0-.04,0-.08-.02-.1s-.04-.03-.07-.03c-.15,0-.34.19-.55.57h-.18c.33-.59.63-.89.93-.89.1,0,.18.03.23.09s.08.15.08.28c0,.22-.09.57-.26,1.04.47-.94.93-1.41,1.38-1.41.14,0,.27.05.38.14s.16.23.16.42c0,.12-.05.34-.16.66l-.42,1.25c-.11.34-.17.52-.17.56,0,.05.01.09.04.11s.06.04.11.04c.09,0,.18-.05.29-.15s.21-.25.32-.45Z"/><path class="cls-3" d="M133.61,137.4c0-.11.04-.21.12-.29s.18-.12.29-.12.21.04.29.12.12.18.12.29-.04.21-.12.29-.18.12-.29.12-.22-.04-.29-.12-.12-.18-.12-.29Z"/></svg>
